<svg width="120" height="40" viewBox="0 0 120 40" fill="none" xmlns="http://www.w3.org/2000/svg">
<g clip-path="url(#clip0_901_320)">
<path d="M110.135 0.00013H9.53468C9.16798 0.00013 8.80568 0.00013 8.43995 0.00213C8.1338 0.00413 7.83009 0.00994 7.521 0.01483C6.84951 0.0227318 6.17961 0.0818063 5.5171 0.19154C4.85552 0.303663 4.21467 0.515046 3.61622 0.81854C3.0185 1.1246 2.47235 1.5223 1.99757 1.9972C1.5203 2.47077 1.12246 3.01815 0.81935 3.61829C0.5154 4.21724 0.304641 4.85907 0.19435 5.52161C0.0830109 6.18332 0.0230984 6.85265 0.01515 7.52361C0.00587 7.83021 0.00489 8.13783 0 8.44447V31.5587C0.00489 31.8692 0.00587 32.17 0.01515 32.4806C0.0231008 33.1516 0.0830134 33.8209 0.19435 34.4825C0.304336 35.1455 0.515108 35.7877 0.81935 36.3868C1.12233 36.985 1.52022 37.5302 1.99757 38.0011C2.47054 38.4781 3.01705 38.8761 3.61622 39.1798C4.21467 39.4841 4.85545 39.6968 5.5171 39.8106C6.17972 39.9195 6.84956 39.9786 7.521 39.9874C7.83009 39.9942 8.1338 39.9981 8.43995 39.9981C8.80567 40.0001 9.168 40.0001 9.53468 40.0001H110.135C110.494 40.0001 110.859 40.0001 111.219 39.9981C111.523 39.9981 111.836 39.9942 112.141 39.9874C112.811 39.9791 113.479 39.92 114.141 39.8106C114.804 39.696 115.448 39.4834 116.049 39.1798C116.647 38.8759 117.193 38.478 117.666 38.0011C118.142 37.5284 118.541 36.9836 118.848 36.3868C119.15 35.7872 119.358 35.1451 119.467 34.4825C119.578 33.8208 119.64 33.1516 119.652 32.4806C119.656 32.17 119.656 31.8692 119.656 31.5587C119.664 31.1954 119.664 30.8341 119.664 30.4649V9.53626C119.664 9.17005 119.664 8.80677 119.656 8.44447C119.656 8.13783 119.656 7.83021 119.652 7.52357C119.64 6.85255 119.578 6.18337 119.467 5.52157C119.358 4.85941 119.149 4.21763 118.848 3.61825C118.23 2.41533 117.252 1.43616 116.049 0.81845C115.448 0.515697 114.804 0.30437 114.141 0.19145C113.48 0.0812328 112.811 0.0221378 112.141 0.01469C111.836 0.00981 111.523 0.00395 111.219 0.002C110.859 0 110.494 0 110.135 0V0.00013Z" fill="#A6A6A6"/>
<path d="M8.44487 39.125C8.14019 39.125 7.84287 39.1211 7.54058 39.1143C6.91436 39.1061 6.2896 39.0516 5.67144 38.9512C5.09503 38.8519 4.53664 38.6673 4.0147 38.4033C3.49754 38.1415 3.02585 37.7983 2.6177 37.3867C2.20364 36.98 1.85891 36.5082 1.59719 35.9902C1.33258 35.4688 1.14945 34.9099 1.05419 34.333C0.951311 33.7131 0.895651 33.0863 0.887687 32.458C0.881347 32.2471 0.873047 31.5449 0.873047 31.5449V8.44434C0.873047 8.44434 0.881887 7.75293 0.887737 7.5498C0.895363 6.92248 0.950699 6.29665 1.05327 5.67773C1.14871 5.09925 1.33197 4.53875 1.59673 4.01563C1.85749 3.49794 2.2003 3.02586 2.61187 2.61768C3.02297 2.20562 3.49617 1.8606 4.01421 1.59521C4.53495 1.33209 5.09228 1.14873 5.66753 1.05127C6.28772 0.949836 6.91465 0.894996 7.54304 0.88721L8.44536 0.875H111.214L112.127 0.8877C112.75 0.895099 113.371 0.94945 113.985 1.05029C114.566 1.14898 115.13 1.33362 115.656 1.59814C116.694 2.13299 117.539 2.97916 118.071 4.01807C118.332 4.53758 118.512 5.09351 118.607 5.66699C118.71 6.29099 118.768 6.92174 118.78 7.5542C118.783 7.8374 118.783 8.1416 118.783 8.44434C118.791 8.81934 118.791 9.17627 118.791 9.53613V30.4648C118.791 30.8281 118.791 31.1826 118.783 31.54C118.783 31.8652 118.783 32.1631 118.779 32.4697C118.768 33.0909 118.711 33.7104 118.608 34.3232C118.515 34.9043 118.333 35.4675 118.068 35.9932C117.805 36.5056 117.462 36.9733 117.053 37.3789C116.644 37.7927 116.172 38.1379 115.653 38.4014C115.128 38.6674 114.566 38.8527 113.985 38.9512C113.367 39.0522 112.742 39.1067 112.116 39.1143C111.823 39.1211 111.517 39.125 111.219 39.125L110.135 39.127L8.44487 39.125Z" fill="black"/>
<path d="M24.769 20.3013C24.7797 19.4666 25.0014 18.6483 25.4135 17.9223C25.8255 17.1964 26.4145 16.5864 27.1256 16.1492C26.6738 15.5041 26.0779 14.9731 25.385 14.5986C24.6922 14.224 23.9216 14.0162 23.1344 13.9916C21.4552 13.8153 19.8272 14.9964 18.9715 14.9964C18.0992 14.9964 16.7817 14.0091 15.363 14.0383C14.4453 14.0679 13.551 14.3348 12.7671 14.8128C11.9832 15.2909 11.3365 15.9638 10.8901 16.7661C8.95607 20.1145 10.3987 25.0356 12.2513 27.7422C13.1782 29.0676 14.2615 30.548 15.6789 30.4955C17.066 30.438 17.584 29.611 19.2583 29.611C20.9171 29.611 21.4031 30.4955 22.8493 30.4621C24.3377 30.438 25.2754 29.1309 26.1698 27.793C26.8358 26.8486 27.3483 25.8049 27.6882 24.7005C26.8235 24.3347 26.0856 23.7226 25.5665 22.9403C25.0474 22.158 24.77 21.2402 24.769 20.3013V20.3013Z" fill="white"/>
<path d="M22.0376 12.2113C22.8491 11.2371 23.2489 9.98494 23.1521 8.7207C21.9123 8.85092 20.767 9.44348 19.9445 10.3803C19.5424 10.838 19.2344 11.3704 19.0381 11.9472C18.8419 12.524 18.7612 13.1337 18.8008 13.7417C19.4209 13.7481 20.0344 13.6137 20.5951 13.3486C21.1558 13.0835 21.649 12.6946 22.0376 12.2113Z" fill="white"/>
<path d="M42.3022 27.1397H37.5688L36.4321 30.4961H34.4272L38.9106 18.0781H40.9936L45.477 30.4961H43.438L42.3022 27.1397ZM38.0591 25.5908H41.8111L39.9615 20.1436H39.9097L38.0591 25.5908Z" fill="white"/>
<path d="M55.1597 25.9695C55.1597 28.7829 53.6538 30.5905 51.3814 30.5905C50.8057 30.6207 50.2332 30.4881 49.7294 30.2079C49.2256 29.9278 48.8109 29.5114 48.5327 29.0065H48.4897V33.4909H46.6313V21.4421H48.4302V22.948H48.4644C48.7553 22.4455 49.1771 22.0313 49.6847 21.7495C50.1923 21.4676 50.7669 21.3287 51.3472 21.3474C53.645 21.3474 55.1597 23.1638 55.1597 25.9695ZM53.2495 25.9695C53.2495 24.1365 52.3023 22.9314 50.857 22.9314C49.437 22.9314 48.482 24.1618 48.482 25.9695C48.482 27.7937 49.437 29.0154 50.857 29.0154C52.3023 29.0154 53.2495 27.8191 53.2495 25.9695Z" fill="white"/>
<path d="M65.1245 25.9694C65.1245 28.7829 63.6187 30.5905 61.3462 30.5905C60.7706 30.6206 60.1981 30.488 59.6943 30.2079C59.1905 29.9278 58.7758 29.5114 58.4976 29.0065H58.4546V33.4909H56.5962V21.4421H58.395V22.948H58.4292C58.7201 22.4455 59.1419 22.0313 59.6495 21.7495C60.1571 21.4676 60.7317 21.3287 61.312 21.3474C63.6099 21.3474 65.1245 23.1638 65.1245 25.9694ZM63.2144 25.9694C63.2144 24.1364 62.2671 22.9314 60.8218 22.9314C59.4019 22.9314 58.4468 24.1618 58.4468 25.9694C58.4468 27.7937 59.4019 29.0153 60.8218 29.0153C62.2671 29.0153 63.2144 27.8191 63.2144 25.9694H63.2144Z" fill="white"/>
<path d="M71.7105 27.0362C71.8482 28.2676 73.0445 29.0762 74.6792 29.0762C76.2456 29.0762 77.3726 28.2676 77.3726 27.1572C77.3726 26.1934 76.6929 25.6162 75.0835 25.2207L73.4742 24.833C71.1939 24.2822 70.1353 23.2158 70.1353 21.4854C70.1353 19.3428 72.0025 17.8711 74.6538 17.8711C77.2778 17.8711 79.0767 19.3428 79.1372 21.4854H77.2612C77.1489 20.2461 76.1245 19.4981 74.6274 19.4981C73.1304 19.4981 72.106 20.2549 72.106 21.3565C72.106 22.2344 72.7603 22.751 74.3608 23.1465L75.729 23.4824C78.2769 24.0849 79.3355 25.1084 79.3355 26.9248C79.3355 29.248 77.4849 30.7031 74.5415 30.7031C71.7876 30.7031 69.9282 29.2822 69.8081 27.0361L71.7105 27.0362Z" fill="white"/>
<path d="M83.3462 19.2998V21.4424H85.0679V22.9141H83.3462V27.9053C83.3462 28.6807 83.6909 29.042 84.4477 29.042C84.6521 29.0384 84.8562 29.0241 85.0591 28.999V30.4619C84.7188 30.5255 84.3729 30.5543 84.0268 30.5478C82.1938 30.5478 81.479 29.8593 81.479 28.1035V22.9141H80.1626V21.4424H81.479V19.2998H83.3462Z" fill="white"/>
<path d="M86.0649 25.9697C86.0649 23.1211 87.7427 21.3311 90.3589 21.3311C92.9839 21.3311 94.6538 23.1211 94.6538 25.9697C94.6538 28.8262 92.9927 30.6084 90.3589 30.6084C87.726 30.6084 86.0649 28.8262 86.0649 25.9697ZM92.7602 25.9697C92.7602 24.0156 91.8647 22.8623 90.3589 22.8623C88.853 22.8623 87.9585 24.0244 87.9585 25.9697C87.9585 27.9316 88.853 29.0762 90.3589 29.0762C91.8647 29.0762 92.7602 27.9316 92.7602 25.9697H92.7602Z" fill="white"/>
<path d="M96.186 21.442H97.9585V22.983H98.0015C98.1214 22.5017 98.4034 22.0764 98.8 21.7785C99.1966 21.4806 99.6836 21.3284 100.179 21.3473C100.393 21.3465 100.607 21.3698 100.816 21.4166V23.1549C100.546 23.0723 100.264 23.0343 99.981 23.0426C99.711 23.0316 99.4418 23.0792 99.192 23.1821C98.9421 23.285 98.7175 23.4408 98.5335 23.6386C98.3496 23.8365 98.2106 24.0719 98.1262 24.3286C98.0417 24.5852 98.0139 24.8571 98.0444 25.1256V30.4957H96.186L96.186 21.442Z" fill="white"/>
<path d="M109.384 27.8369C109.134 29.4805 107.534 30.6084 105.486 30.6084C102.852 30.6084 101.217 28.8437 101.217 26.0127C101.217 23.1729 102.861 21.3311 105.408 21.3311C107.913 21.3311 109.488 23.0518 109.488 25.7969V26.4336H103.093V26.5459C103.064 26.8791 103.105 27.2148 103.216 27.5306C103.326 27.8464 103.502 28.1352 103.732 28.3778C103.963 28.6203 104.242 28.8111 104.552 28.9374C104.861 29.0637 105.195 29.1226 105.529 29.1103C105.968 29.1515 106.409 29.0498 106.785 28.8203C107.162 28.5909 107.455 28.246 107.62 27.8369L109.384 27.8369ZM103.102 25.1348H107.628C107.645 24.8352 107.6 24.5354 107.495 24.2541C107.39 23.9729 107.229 23.7164 107.02 23.5006C106.812 23.2849 106.561 23.1145 106.283 23.0003C106.006 22.8861 105.708 22.8305 105.408 22.8369C105.105 22.8351 104.805 22.8933 104.525 23.008C104.245 23.1227 103.99 23.2918 103.776 23.5054C103.562 23.7191 103.392 23.973 103.276 24.2527C103.16 24.5323 103.101 24.8321 103.102 25.1348V25.1348Z" fill="white"/>
<path d="M37.8262 8.7304C38.2158 8.70244 38.6067 8.7613 38.9709 8.90274C39.335 9.04417 39.6632 9.26465 39.9317 9.54828C40.2003 9.8319 40.4026 10.1716 40.524 10.5429C40.6454 10.9141 40.6829 11.3077 40.6338 11.6952C40.6338 13.6015 39.6035 14.6972 37.8262 14.6972H35.6709V8.7304H37.8262ZM36.5976 13.8534H37.7226C38.0011 13.87 38.2797 13.8244 38.5382 13.7198C38.7967 13.6152 39.0287 13.4542 39.2172 13.2487C39.4057 13.0431 39.546 12.7981 39.6278 12.5315C39.7097 12.2648 39.7311 11.9833 39.6904 11.7074C39.7281 11.4326 39.7046 11.1528 39.6215 10.8881C39.5383 10.6235 39.3977 10.3805 39.2096 10.1765C39.0216 9.97261 38.7907 9.8128 38.5337 9.70856C38.2766 9.60433 37.9996 9.55824 37.7226 9.57361H36.5976V13.8534Z" fill="white"/>
<path d="M41.6805 12.4438C41.6521 12.1479 41.686 11.8493 41.7798 11.5672C41.8737 11.2852 42.0254 11.0258 42.2254 10.8059C42.4253 10.5859 42.669 10.4101 42.9409 10.2898C43.2127 10.1696 43.5067 10.1074 43.804 10.1074C44.1013 10.1074 44.3952 10.1696 44.6671 10.2898C44.939 10.4101 45.1827 10.5859 45.3826 10.8059C45.5825 11.0258 45.7343 11.2852 45.8281 11.5672C45.922 11.8493 45.9558 12.1479 45.9275 12.4438C45.9564 12.74 45.9229 13.039 45.8293 13.3215C45.7357 13.6041 45.5841 13.8639 45.3841 14.0843C45.1841 14.3047 44.9402 14.4808 44.6681 14.6014C44.3959 14.7219 44.1016 14.7842 43.804 14.7842C43.5064 14.7842 43.212 14.7219 42.9399 14.6014C42.6678 14.4808 42.4239 14.3047 42.2239 14.0843C42.0239 13.8639 41.8722 13.6041 41.7786 13.3215C41.6851 13.039 41.6516 12.74 41.6805 12.4438V12.4438ZM45.0135 12.4438C45.0135 11.4677 44.575 10.8969 43.8055 10.8969C43.033 10.8969 42.5985 11.4677 42.5985 12.4438C42.5985 13.4277 43.033 13.9941 43.8055 13.9941C44.575 13.9941 45.0135 13.4238 45.0135 12.4438H45.0135Z" fill="white"/>
<path d="M51.5732 14.6973H50.6514L49.7207 11.3809H49.6504L48.7236 14.6973H47.8105L46.5693 10.1943H47.4707L48.2773 13.6303H48.3438L49.2695 10.1943H50.1221L51.0479 13.6303H51.1182L51.9209 10.1943H52.8096L51.5732 14.6973Z" fill="white"/>
<path d="M53.8535 10.1939H54.709V10.9092H54.7754C54.888 10.6523 55.0781 10.4369 55.3189 10.2931C55.5598 10.1493 55.8395 10.0842 56.1191 10.107C56.3382 10.0905 56.5582 10.1235 56.7628 10.2036C56.9674 10.2837 57.1514 10.4088 57.3011 10.5697C57.4508 10.7305 57.5623 10.923 57.6275 11.1328C57.6927 11.3426 57.7099 11.5644 57.6777 11.7818V14.6968H56.7891V12.0049C56.7891 11.2813 56.4746 10.9214 55.8174 10.9214C55.6686 10.9145 55.5201 10.9398 55.3821 10.9957C55.244 11.0515 55.1197 11.1365 55.0175 11.2449C54.9154 11.3533 54.8379 11.4825 54.7904 11.6236C54.7429 11.7647 54.7264 11.9145 54.7422 12.0625V14.6968H53.8535L53.8535 10.1939Z" fill="white"/>
<path d="M59.0938 8.43652H59.9824V14.6973H59.0938V8.43652Z" fill="white"/>
<path d="M61.2175 12.4439C61.1893 12.1479 61.2231 11.8494 61.317 11.5673C61.4109 11.2852 61.5626 11.0259 61.7626 10.8059C61.9626 10.5859 62.2063 10.4101 62.4782 10.2898C62.75 10.1696 63.044 10.1074 63.3413 10.1074C63.6386 10.1074 63.9326 10.1696 64.2045 10.2898C64.4764 10.4101 64.7201 10.5859 64.92 10.8059C65.12 11.0259 65.2718 11.2852 65.3656 11.5673C65.4595 11.8494 65.4934 12.1479 65.4651 12.4439C65.4939 12.7401 65.4604 13.0391 65.3668 13.3216C65.2732 13.6042 65.1215 13.864 64.9215 14.0844C64.7215 14.3048 64.4776 14.4809 64.2054 14.6014C63.9333 14.722 63.639 14.7842 63.3413 14.7842C63.0437 14.7842 62.7493 14.722 62.4772 14.6014C62.2051 14.4809 61.9612 14.3048 61.7612 14.0844C61.5611 13.864 61.4095 13.6042 61.3158 13.3216C61.2222 13.0391 61.1887 12.7401 61.2175 12.4439V12.4439ZM64.5505 12.4439C64.5505 11.4678 64.1121 10.897 63.3425 10.897C62.5701 10.897 62.1355 11.4678 62.1355 12.4439C62.1355 13.4278 62.5701 13.9942 63.3425 13.9942C64.1121 13.9942 64.5505 13.4239 64.5505 12.4439H64.5505Z" fill="white"/>
<path d="M66.4009 13.4238C66.4009 12.6133 67.0044 12.146 68.0757 12.0796L69.2954 12.0093V11.6206C69.2954 11.145 68.981 10.8765 68.3735 10.8765C67.8774 10.8765 67.5337 11.0586 67.4351 11.377H66.5747C66.6655 10.6035 67.3931 10.1074 68.4146 10.1074C69.5435 10.1074 70.1802 10.6694 70.1802 11.6206V14.6973H69.3247V14.0645H69.2544C69.1117 14.2914 68.9113 14.4765 68.6737 14.6007C68.436 14.7249 68.1697 14.7838 67.9019 14.7715C67.7128 14.7911 67.5218 14.7709 67.341 14.7122C67.1602 14.6536 66.9938 14.5576 66.8524 14.4307C66.711 14.3037 66.5977 14.1485 66.52 13.9751C66.4422 13.8017 66.4016 13.6139 66.4009 13.4238V13.4238ZM69.2954 13.0391V12.6626L68.1958 12.7329C67.5757 12.7744 67.2944 12.9853 67.2944 13.3823C67.2944 13.7876 67.646 14.0234 68.1294 14.0234C68.2711 14.0378 68.4142 14.0235 68.5502 13.9814C68.6862 13.9393 68.8123 13.8703 68.9211 13.7784C69.0299 13.6866 69.1191 13.5738 69.1834 13.4468C69.2477 13.3198 69.2858 13.1811 69.2954 13.0391V13.0391Z" fill="white"/>
<path d="M71.3481 12.4439C71.3481 11.021 72.0796 10.1196 73.2173 10.1196C73.4987 10.1067 73.778 10.1741 74.0225 10.314C74.267 10.4539 74.4667 10.6605 74.5981 10.9096H74.6646V8.43652H75.5532V14.6973H74.7017V13.9858H74.6314C74.4897 14.2333 74.2831 14.4374 74.0339 14.5758C73.7846 14.7143 73.5022 14.782 73.2173 14.7715C72.0718 14.7715 71.3481 13.8701 71.3481 12.4439ZM72.2661 12.4439C72.2661 13.3989 72.7163 13.9737 73.4693 13.9737C74.2183 13.9737 74.6812 13.3907 74.6812 12.4478C74.6812 11.5093 74.2134 10.918 73.4693 10.918C72.7212 10.918 72.2661 11.4966 72.2661 12.4439H72.2661Z" fill="white"/>
<path d="M79.2298 12.4438C79.2015 12.1479 79.2353 11.8493 79.3292 11.5672C79.423 11.2852 79.5748 11.0258 79.7747 10.8059C79.9746 10.5859 80.2183 10.4101 80.4902 10.2898C80.762 10.1696 81.056 10.1074 81.3533 10.1074C81.6506 10.1074 81.9446 10.1696 82.2164 10.2898C82.4883 10.4101 82.732 10.5859 82.9319 10.8059C83.1319 11.0258 83.2836 11.2852 83.3775 11.5672C83.4713 11.8493 83.5052 12.1479 83.4768 12.4438C83.5057 12.74 83.4722 13.039 83.3786 13.3215C83.2851 13.6041 83.1334 13.8639 82.9334 14.0843C82.7334 14.3047 82.4895 14.4808 82.2174 14.6014C81.9453 14.7219 81.6509 14.7842 81.3533 14.7842C81.0557 14.7842 80.7613 14.7219 80.4892 14.6014C80.2171 14.4808 79.9732 14.3047 79.7732 14.0843C79.5732 13.8639 79.4216 13.6041 79.328 13.3215C79.2344 13.039 79.2009 12.74 79.2298 12.4438V12.4438ZM82.5628 12.4438C82.5628 11.4677 82.1243 10.8969 81.3548 10.8969C80.5823 10.8969 80.1478 11.4677 80.1478 12.4438C80.1478 13.4277 80.5823 13.9941 81.3548 13.9941C82.1243 13.9941 82.5628 13.4238 82.5628 12.4438Z" fill="white"/>
<path d="M84.6694 10.1939H85.5249V10.9092H85.5913C85.704 10.6523 85.894 10.4369 86.1348 10.2931C86.3757 10.1493 86.6555 10.0842 86.9351 10.107C87.1542 10.0905 87.3742 10.1235 87.5788 10.2036C87.7834 10.2837 87.9673 10.4088 88.117 10.5697C88.2667 10.7305 88.3783 10.923 88.4435 11.1328C88.5087 11.3426 88.5258 11.5644 88.4937 11.7818V14.6968H87.605V12.0049C87.605 11.2813 87.2905 10.9214 86.6333 10.9214C86.4846 10.9145 86.336 10.9398 86.198 10.9957C86.0599 11.0515 85.9356 11.1365 85.8335 11.2449C85.7313 11.3533 85.6539 11.4825 85.6063 11.6236C85.5588 11.7647 85.5423 11.9145 85.5581 12.0625V14.6968H84.6694V10.1939Z" fill="white"/>
<path d="M93.5151 9.07324V10.2148H94.4907V10.9634H93.5151V13.2788C93.5151 13.7505 93.7095 13.957 94.1519 13.957C94.2651 13.9567 94.3783 13.9498 94.4907 13.9365V14.6768C94.3311 14.7053 94.1694 14.7205 94.0073 14.7222C93.019 14.7222 92.6255 14.3745 92.6255 13.5063V10.9633H91.9106V10.2148H92.6255V9.07324H93.5151Z" fill="white"/>
<path d="M95.7046 8.43652H96.5854V10.918H96.6558C96.7739 10.6587 96.9691 10.4421 97.2148 10.2977C97.4605 10.1534 97.7447 10.0883 98.0288 10.1113C98.2467 10.0995 98.4646 10.1359 98.6669 10.2179C98.8692 10.2999 99.0508 10.4256 99.199 10.586C99.3471 10.7463 99.458 10.9373 99.5238 11.1455C99.5896 11.3536 99.6086 11.5737 99.5795 11.79V14.6973H98.69V12.0093C98.69 11.29 98.355 10.9258 97.7271 10.9258C97.5743 10.9132 97.4207 10.9342 97.2769 10.9873C97.1332 11.0404 97.0027 11.1242 96.8947 11.2329C96.7867 11.3417 96.7038 11.4727 96.6517 11.6168C96.5997 11.761 96.5797 11.9147 96.5933 12.0674V14.6973H95.7046L95.7046 8.43652Z" fill="white"/>
<path d="M104.761 13.4815C104.641 13.8931 104.379 14.249 104.022 14.4872C103.666 14.7253 103.237 14.8305 102.81 14.7842C102.514 14.7921 102.219 14.7353 101.946 14.6177C101.674 14.5002 101.43 14.3248 101.232 14.1036C101.034 13.8825 100.887 13.6209 100.8 13.3371C100.713 13.0533 100.69 12.754 100.73 12.46C100.691 12.1652 100.715 11.8652 100.801 11.5805C100.888 11.2959 101.035 11.0331 101.231 10.81C101.428 10.587 101.671 10.4088 101.943 10.2876C102.214 10.1664 102.509 10.105 102.806 10.1075C104.059 10.1075 104.815 10.9635 104.815 12.3775V12.6876H101.635V12.7374C101.621 12.9026 101.642 13.069 101.696 13.2257C101.751 13.3825 101.837 13.5262 101.95 13.6476C102.063 13.7691 102.2 13.8656 102.352 13.931C102.504 13.9964 102.669 14.0292 102.835 14.0274C103.047 14.0529 103.263 14.0146 103.453 13.9174C103.644 13.8202 103.802 13.6685 103.906 13.4815L104.761 13.4815ZM101.635 12.0303H103.91C103.921 11.8792 103.9 11.7274 103.85 11.5847C103.799 11.442 103.718 11.3115 103.614 11.2016C103.51 11.0918 103.383 11.005 103.243 10.9468C103.103 10.8886 102.953 10.8604 102.801 10.8638C102.648 10.8619 102.495 10.8908 102.353 10.9487C102.21 11.0067 102.081 11.0925 101.972 11.2012C101.864 11.3099 101.778 11.4393 101.72 11.5817C101.662 11.7241 101.633 11.8766 101.635 12.0303H101.635Z" fill="white"/>
</g>
<defs>
<clipPath id="clip0_901_320">
<rect width="119.664" height="40" fill="white"/>
</clipPath>
</defs>
</svg>
