<svg width="176" height="25" viewBox="0 0 176 25" fill="none" xmlns="http://www.w3.org/2000/svg">
<path d="M94.6569 16.5959L95.9899 24.3768C96.0379 24.6589 95.8787 24.8227 95.7791 24.8948C95.6795 24.9669 95.475 25.0683 95.2216 24.9348L88.2401 21.2616C88.0703 21.1717 87.8836 21.1272 87.6968 21.1272C87.5101 21.1272 87.3233 21.1717 87.1535 21.2616L80.173 24.9348C79.9195 25.0683 79.715 24.9669 79.6154 24.8948C79.5158 24.8227 79.3566 24.6589 79.4047 24.3768L80.7376 16.5959C80.8025 16.2168 80.6772 15.8305 80.4015 15.5617L74.7539 10.0514C74.5494 9.8511 74.5823 9.62503 74.6197 9.50843C74.6579 9.39184 74.7637 9.1889 75.0465 9.14796L82.8514 8.01314C83.2319 7.95796 83.5601 7.71854 83.7299 7.37408L87.2202 0.295495C87.3465 0.0382702 87.5723 0 87.695 0C87.8178 0 88.0427 0.0382702 88.1699 0.295495L91.6602 7.37408C91.83 7.71854 92.159 7.95796 92.5387 8.01314L100.344 9.14796C100.627 9.1889 100.733 9.39184 100.77 9.50843C100.809 9.62503 100.842 9.8511 100.636 10.0514L94.9886 15.5617C94.7138 15.8305 94.5875 16.2168 94.6525 16.5959H94.6569Z" fill="#FFC04F"/>
<path d="M57.36 16.5959L58.693 24.3768C58.741 24.6589 58.5818 24.8227 58.4822 24.8948C58.3827 24.9669 58.1781 25.0683 57.9247 24.9348L50.9433 21.2616C50.7734 21.1717 50.5867 21.1272 50.3999 21.1272C50.2132 21.1272 50.0265 21.1717 49.8566 21.2616L42.8761 24.9348C42.6227 25.0683 42.4181 24.9669 42.3185 24.8948C42.2189 24.8227 42.0598 24.6589 42.1078 24.3768L43.4408 16.5959C43.5057 16.2168 43.3803 15.8305 43.1046 15.5617L37.4571 10.0514C37.2525 9.8511 37.2854 9.62503 37.3228 9.50843C37.361 9.39184 37.4668 9.1889 37.7496 9.14796L45.5545 8.01314C45.9351 7.95796 46.2632 7.71854 46.433 7.37408L49.9233 0.295495C50.0496 0.0382702 50.2755 0 50.3982 0C50.5209 0 50.7459 0.0382702 50.873 0.295495L54.3633 7.37408C54.5331 7.71854 54.8621 7.95796 55.2419 8.01314L63.0467 9.14796C63.3304 9.1889 63.4362 9.39184 63.4735 9.50843C63.5118 9.62503 63.5447 9.8511 63.3393 10.0514L57.6917 15.5617C57.4169 15.8305 57.2907 16.2168 57.3556 16.5959H57.36Z" fill="#FFC04F"/>
<path d="M20.0651 16.5959L21.3981 24.3768C21.4461 24.6589 21.2869 24.8227 21.1873 24.8948C21.0877 24.9669 20.8832 25.0683 20.6298 24.9348L13.6483 21.2616C13.4785 21.1717 13.2918 21.1272 13.105 21.1272C12.9183 21.1272 12.7315 21.1717 12.5617 21.2616L5.58117 24.9348C5.32773 25.0683 5.12321 24.9669 5.02362 24.8948C4.92402 24.8227 4.76485 24.6589 4.81287 24.3768L6.14584 16.5959C6.21075 16.2168 6.08537 15.8305 5.8097 15.5617L0.162141 10.0514C-0.0423837 9.8511 -0.00948002 9.62503 0.027868 9.50843C0.0661053 9.39184 0.171924 9.1889 0.454702 9.14796L8.25956 8.01314C8.64015 7.95796 8.96828 7.71854 9.13813 7.37408L12.6284 0.295495C12.7547 0.0382702 12.9805 0 13.1032 0C13.226 0 13.4509 0.0382702 13.5781 0.295495L17.0684 7.37408C17.2382 7.71854 17.5672 7.95796 17.9469 8.01314L25.7518 9.14796C26.0355 9.1889 26.1413 9.39184 26.1786 9.50843C26.2169 9.62503 26.2498 9.8511 26.0444 10.0514L20.3968 15.5617C20.122 15.8305 19.9957 16.2168 20.0607 16.5959H20.0651Z" fill="#FFC04F"/>
<path d="M131.952 16.5959L133.285 24.3768C133.333 24.6589 133.174 24.8227 133.074 24.8948C132.974 24.9669 132.77 25.0683 132.516 24.9348L125.535 21.2616C125.365 21.1717 125.178 21.1272 124.992 21.1272C124.805 21.1272 124.618 21.1717 124.448 21.2616L117.468 24.9348C117.214 25.0683 117.01 24.9669 116.91 24.8948C116.811 24.8227 116.652 24.6589 116.7 24.3768L118.033 16.5959C118.097 16.2168 117.972 15.8305 117.696 15.5617L112.049 10.0514C111.844 9.8511 111.877 9.62503 111.915 9.50843C111.953 9.39184 112.059 9.1889 112.341 9.14796L120.146 8.01314C120.527 7.95796 120.855 7.71854 121.025 7.37408L124.515 0.295495C124.641 0.0382702 124.867 0 124.99 0C125.113 0 125.338 0.0382702 125.465 0.295495L128.955 7.37408C129.125 7.71854 129.454 7.95796 129.834 8.01314L137.639 9.14796C137.922 9.1889 138.028 9.39184 138.065 9.50843C138.104 9.62503 138.136 9.8511 137.931 10.0514L132.284 15.5617C132.009 15.8305 131.882 16.2168 131.947 16.5959H131.952Z" fill="#FFC04F"/>
<path d="M169.249 16.5959L170.582 24.3768C170.63 24.6589 170.471 24.8227 170.371 24.8948C170.271 24.9669 170.067 25.0683 169.813 24.9348L162.832 21.2616C162.662 21.1717 162.475 21.1272 162.289 21.1272C162.102 21.1272 161.915 21.1717 161.745 21.2616L154.765 24.9348C154.511 25.0683 154.307 24.9669 154.207 24.8948C154.108 24.8227 153.948 24.6589 153.996 24.3768L155.329 16.5959C155.394 16.2168 155.269 15.8305 154.993 15.5617L149.346 10.0514C149.141 9.8511 149.174 9.62503 149.211 9.50843C149.25 9.39184 149.356 9.1889 149.638 9.14796L157.443 8.01314C157.824 7.95796 158.152 7.71854 158.322 7.37408L161.812 0.295495C161.938 0.0382702 162.164 0 162.287 0C162.41 0 162.635 0.0382702 162.762 0.295495L166.252 7.37408C166.422 7.71854 166.751 7.95796 167.131 8.01314L174.935 9.14796C175.219 9.1889 175.325 9.39184 175.362 9.50843C175.4 9.62503 175.433 9.8511 175.228 10.0514L169.58 15.5617C169.306 15.8305 169.179 16.2168 169.244 16.5959H169.249Z" fill="#FFC04F"/>
</svg>
